<svg width="170" height="30" viewBox="0 0 170 30" fill="none" xmlns="http://www.w3.org/2000/svg">
<path d="M13.2663 23L12.2583 18.828H6.60234L5.62234 23H0.862341L6.71434 3.596H12.2863L18.1383 23H13.2663ZM7.38634 15.496H11.4743L9.43034 6.928L7.38634 15.496ZM29.278 7.656C31.1446 7.656 32.5353 8.34667 33.45 9.728C34.3646 11.1093 34.822 13.0413 34.822 15.524C34.822 17.0547 34.5793 18.4267 34.094 19.64C33.6273 20.8347 32.946 21.7773 32.05 22.468C31.154 23.14 30.1086 23.476 28.914 23.476C27.4206 23.476 26.2166 22.9627 25.302 21.936V28.74L20.878 29.216V8.132H24.77L24.994 9.784C25.5726 9.056 26.2353 8.524 26.982 8.188C27.7286 7.83333 28.494 7.656 29.278 7.656ZM27.57 20.228C29.3433 20.228 30.23 18.6787 30.23 15.58C30.23 13.8253 30.034 12.612 29.642 11.94C29.25 11.2493 28.662 10.904 27.878 10.904C27.374 10.904 26.898 11.0533 26.45 11.352C26.0206 11.6507 25.638 12.08 25.302 12.64V18.912C25.8993 19.7893 26.6553 20.228 27.57 20.228ZM51.949 15.272C51.949 15.888 51.921 16.42 51.865 16.868H42.653C42.8023 18.1187 43.157 18.996 43.717 19.5C44.277 20.004 45.0517 20.256 46.041 20.256C46.6383 20.256 47.217 20.1533 47.777 19.948C48.337 19.724 48.9437 19.388 49.597 18.94L51.417 21.404C49.681 22.7853 47.749 23.476 45.621 23.476C43.213 23.476 41.365 22.7667 40.077 21.348C38.789 19.9293 38.145 18.0253 38.145 15.636C38.145 14.124 38.4157 12.7707 38.957 11.576C39.4983 10.3627 40.2917 9.41067 41.337 8.72C42.3823 8.01067 43.633 7.656 45.089 7.656C47.2357 7.656 48.9157 8.328 50.129 9.672C51.3423 11.016 51.949 12.8827 51.949 15.272ZM47.609 14.012C47.5717 11.7347 46.769 10.596 45.201 10.596C44.4357 10.596 43.8383 10.876 43.409 11.436C42.9983 11.996 42.7463 12.92 42.653 14.208H47.609V14.012ZM63.5708 15.048L68.3588 23H63.3468L60.7708 17.428L58.2508 23H53.4348L58.2228 15.188L53.9108 8.132H58.8668L60.9388 12.892L62.9268 8.132H67.6308L63.5708 15.048ZM85.7194 15.58H83.9274V23H79.3354V3.596H85.6914C88.3421 3.596 90.3301 4.08133 91.6554 5.052C92.9994 6.02267 93.6714 7.50667 93.6714 9.504C93.6714 10.7547 93.3727 11.8 92.7754 12.64C92.1781 13.4613 91.2354 14.1613 89.9474 14.74L94.8754 23H89.6954L85.7194 15.58ZM83.9274 12.416H85.8594C86.8861 12.416 87.6514 12.1827 88.1554 11.716C88.6781 11.2493 88.9394 10.512 88.9394 9.504C88.9394 8.57067 88.6594 7.88933 88.0994 7.46C87.5581 7.03067 86.7181 6.816 85.5794 6.816H83.9274V12.416ZM109.475 18.688C109.475 19.248 109.55 19.6587 109.699 19.92C109.867 20.1813 110.129 20.3773 110.483 20.508L109.559 23.392C108.645 23.3173 107.898 23.1213 107.319 22.804C106.741 22.468 106.293 21.9453 105.975 21.236C105.005 22.7293 103.511 23.476 101.495 23.476C100.021 23.476 98.8446 23.0467 97.9672 22.188C97.0899 21.3293 96.6512 20.2093 96.6512 18.828C96.6512 17.204 97.2486 15.9627 98.4432 15.104C99.6379 14.2453 101.365 13.816 103.623 13.816H105.135V13.172C105.135 12.2947 104.949 11.6973 104.575 11.38C104.202 11.044 103.549 10.876 102.615 10.876C102.13 10.876 101.542 10.9507 100.851 11.1C100.161 11.2307 99.4512 11.4173 98.7232 11.66L97.7152 8.748C98.6486 8.39333 99.6006 8.12267 100.571 7.936C101.561 7.74933 102.475 7.656 103.315 7.656C105.443 7.656 107.002 8.09467 107.991 8.972C108.981 9.84933 109.475 11.1653 109.475 12.92V18.688ZM102.783 20.312C103.791 20.312 104.575 19.836 105.135 18.884V16.252H104.043C103.035 16.252 102.279 16.4293 101.775 16.784C101.29 17.1387 101.047 17.6893 101.047 18.436C101.047 19.0333 101.197 19.5 101.495 19.836C101.813 20.1533 102.242 20.312 102.783 20.312ZM120.839 7.656C121.866 7.656 122.79 7.80533 123.611 8.104C124.432 8.40267 125.207 8.86 125.935 9.476L124.031 12.108C123.098 11.3987 122.155 11.044 121.203 11.044C120.214 11.044 119.467 11.408 118.963 12.136C118.459 12.864 118.207 14.04 118.207 15.664C118.207 17.232 118.459 18.3427 118.963 18.996C119.467 19.6493 120.195 19.976 121.147 19.976C121.651 19.976 122.108 19.9013 122.519 19.752C122.93 19.584 123.424 19.3227 124.003 18.968L125.935 21.712C124.46 22.888 122.79 23.476 120.923 23.476C119.411 23.476 118.104 23.1587 117.003 22.524C115.902 21.8707 115.052 20.9653 114.455 19.808C113.858 18.632 113.559 17.26 113.559 15.692C113.559 14.124 113.858 12.7333 114.455 11.52C115.052 10.3067 115.902 9.364 117.003 8.692C118.104 8.00133 119.383 7.656 120.839 7.656ZM133.621 8.132V23H129.197V8.132H133.621ZM131.381 0.291999C132.147 0.291999 132.772 0.534666 133.257 1.02C133.761 1.48667 134.013 2.084 134.013 2.812C134.013 3.54 133.761 4.14667 133.257 4.632C132.772 5.09867 132.147 5.332 131.381 5.332C130.616 5.332 129.991 5.09867 129.505 4.632C129.02 4.14667 128.777 3.54 128.777 2.812C128.777 2.084 129.02 1.48667 129.505 1.02C129.991 0.534666 130.616 0.291999 131.381 0.291999ZM147.208 7.656C148.496 7.656 149.504 8.048 150.232 8.832C150.96 9.616 151.324 10.7173 151.324 12.136V23H146.9V12.892C146.9 12.1453 146.779 11.632 146.536 11.352C146.312 11.0533 145.967 10.904 145.5 10.904C144.604 10.904 143.745 11.548 142.924 12.836V23H138.5V8.132H142.364L142.672 9.896C143.307 9.14933 143.988 8.58933 144.716 8.216C145.463 7.84267 146.293 7.656 147.208 7.656ZM169.752 9C168.781 9.392 167.353 9.588 165.468 9.588C166.439 9.99867 167.148 10.5027 167.596 11.1C168.044 11.6973 168.268 12.472 168.268 13.424C168.268 14.376 168.016 15.2347 167.512 16C167.008 16.7467 166.28 17.3347 165.328 17.764C164.395 18.1933 163.293 18.408 162.024 18.408C161.427 18.408 160.857 18.352 160.316 18.24C160.167 18.3147 160.045 18.436 159.952 18.604C159.877 18.7533 159.84 18.912 159.84 19.08C159.84 19.36 159.943 19.584 160.148 19.752C160.372 19.9013 160.811 19.976 161.464 19.976H163.704C164.843 19.976 165.841 20.1627 166.7 20.536C167.559 20.9093 168.221 21.4227 168.688 22.076C169.155 22.7293 169.388 23.4667 169.388 24.288C169.388 25.8373 168.716 27.0413 167.372 27.9C166.047 28.7773 164.124 29.216 161.604 29.216C159.793 29.216 158.365 29.02 157.32 28.628C156.275 28.2547 155.537 27.7227 155.108 27.032C154.697 26.3413 154.492 25.4733 154.492 24.428H158.468C158.468 24.876 158.552 25.2307 158.72 25.492C158.907 25.7533 159.233 25.9493 159.7 26.08C160.167 26.2107 160.839 26.276 161.716 26.276C162.929 26.276 163.769 26.1267 164.236 25.828C164.703 25.548 164.936 25.1373 164.936 24.596C164.936 24.148 164.759 23.7933 164.404 23.532C164.049 23.2707 163.517 23.14 162.808 23.14H160.652C159.121 23.14 157.973 22.8693 157.208 22.328C156.461 21.768 156.088 21.0587 156.088 20.2C156.088 19.6587 156.247 19.136 156.564 18.632C156.881 18.1093 157.311 17.68 157.852 17.344C156.919 16.84 156.237 16.252 155.808 15.58C155.397 14.8893 155.192 14.0587 155.192 13.088C155.192 11.4267 155.789 10.1107 156.984 9.14C158.179 8.15067 159.756 7.656 161.716 7.656C163.209 7.69333 164.469 7.544 165.496 7.208C166.541 6.872 167.615 6.37733 168.716 5.724L169.752 9ZM161.828 10.568C161.137 10.568 160.587 10.792 160.176 11.24C159.784 11.6693 159.588 12.2667 159.588 13.032C159.588 13.8347 159.784 14.46 160.176 14.908C160.587 15.3373 161.137 15.552 161.828 15.552C162.556 15.552 163.107 15.3373 163.48 14.908C163.872 14.4787 164.068 13.8347 164.068 12.976C164.068 11.3707 163.321 10.568 161.828 10.568Z" fill="#F5F5F5"/>
</svg>
