<svg width="170" height="30" viewBox="0 0 170 30" fill="none" xmlns="http://www.w3.org/2000/svg">
<path d="M13.04 23L12.032 18.828H6.376L5.396 23H0.636L6.488 3.596H12.06L17.912 23H13.04ZM7.16 15.496H11.248L9.204 6.928L7.16 15.496ZM29.0516 7.656C30.9183 7.656 32.309 8.34667 33.2236 9.728C34.1383 11.1093 34.5956 13.0413 34.5956 15.524C34.5956 17.0547 34.353 18.4267 33.8676 19.64C33.401 20.8347 32.7196 21.7773 31.8236 22.468C30.9276 23.14 29.8823 23.476 28.6876 23.476C27.1943 23.476 25.9903 22.9627 25.0756 21.936V28.74L20.6516 29.216V8.132H24.5436L24.7676 9.784C25.3463 9.056 26.009 8.524 26.7556 8.188C27.5023 7.83333 28.2676 7.656 29.0516 7.656ZM27.3436 20.228C29.117 20.228 30.0036 18.6787 30.0036 15.58C30.0036 13.8253 29.8076 12.612 29.4156 11.94C29.0236 11.2493 28.4356 10.904 27.6516 10.904C27.1476 10.904 26.6716 11.0533 26.2236 11.352C25.7943 11.6507 25.4116 12.08 25.0756 12.64V18.912C25.673 19.7893 26.429 20.228 27.3436 20.228ZM51.7227 15.272C51.7227 15.888 51.6947 16.42 51.6387 16.868H42.4267C42.576 18.1187 42.9307 18.996 43.4907 19.5C44.0507 20.004 44.8253 20.256 45.8147 20.256C46.412 20.256 46.9907 20.1533 47.5507 19.948C48.1107 19.724 48.7173 19.388 49.3707 18.94L51.1907 21.404C49.4547 22.7853 47.5227 23.476 45.3947 23.476C42.9867 23.476 41.1387 22.7667 39.8507 21.348C38.5627 19.9293 37.9187 18.0253 37.9187 15.636C37.9187 14.124 38.1893 12.7707 38.7307 11.576C39.272 10.3627 40.0653 9.41067 41.1107 8.72C42.156 8.01067 43.4067 7.656 44.8627 7.656C47.0093 7.656 48.6893 8.328 49.9027 9.672C51.116 11.016 51.7227 12.8827 51.7227 15.272ZM47.3827 14.012C47.3453 11.7347 46.5427 10.596 44.9747 10.596C44.2093 10.596 43.612 10.876 43.1827 11.436C42.772 11.996 42.52 12.92 42.4267 14.208H47.3827V14.012ZM63.3444 15.048L68.1324 23H63.1204L60.5444 17.428L58.0244 23H53.2084L57.9964 15.188L53.6844 8.132H58.6404L60.7124 12.892L62.7004 8.132H67.4044L63.3444 15.048ZM85.4931 15.58H83.7011V23H79.1091V3.596H85.4651C88.1157 3.596 90.1037 4.08133 91.4291 5.052C92.7731 6.02267 93.4451 7.50667 93.4451 9.504C93.4451 10.7547 93.1464 11.8 92.5491 12.64C91.9517 13.4613 91.0091 14.1613 89.7211 14.74L94.6491 23H89.4691L85.4931 15.58ZM83.7011 12.416H85.6331C86.6597 12.416 87.4251 12.1827 87.9291 11.716C88.4517 11.2493 88.7131 10.512 88.7131 9.504C88.7131 8.57067 88.4331 7.88933 87.8731 7.46C87.3317 7.03067 86.4917 6.816 85.3531 6.816H83.7011V12.416ZM109.249 18.688C109.249 19.248 109.324 19.6587 109.473 19.92C109.641 20.1813 109.902 20.3773 110.257 20.508L109.333 23.392C108.418 23.3173 107.672 23.1213 107.093 22.804C106.514 22.468 106.066 21.9453 105.749 21.236C104.778 22.7293 103.285 23.476 101.269 23.476C99.7942 23.476 98.6182 23.0467 97.7409 22.188C96.8635 21.3293 96.4249 20.2093 96.4249 18.828C96.4249 17.204 97.0222 15.9627 98.2169 15.104C99.4115 14.2453 101.138 13.816 103.397 13.816H104.909V13.172C104.909 12.2947 104.722 11.6973 104.349 11.38C103.976 11.044 103.322 10.876 102.389 10.876C101.904 10.876 101.316 10.9507 100.625 11.1C99.9342 11.2307 99.2249 11.4173 98.4969 11.66L97.4889 8.748C98.4222 8.39333 99.3742 8.12267 100.345 7.936C101.334 7.74933 102.249 7.656 103.089 7.656C105.217 7.656 106.776 8.09467 107.765 8.972C108.754 9.84933 109.249 11.1653 109.249 12.92V18.688ZM102.557 20.312C103.565 20.312 104.349 19.836 104.909 18.884V16.252H103.817C102.809 16.252 102.053 16.4293 101.549 16.784C101.064 17.1387 100.821 17.6893 100.821 18.436C100.821 19.0333 100.97 19.5 101.269 19.836C101.586 20.1533 102.016 20.312 102.557 20.312ZM120.613 7.656C121.639 7.656 122.563 7.80533 123.385 8.104C124.206 8.40267 124.981 8.86 125.709 9.476L123.805 12.108C122.871 11.3987 121.929 11.044 120.977 11.044C119.987 11.044 119.241 11.408 118.737 12.136C118.233 12.864 117.981 14.04 117.981 15.664C117.981 17.232 118.233 18.3427 118.737 18.996C119.241 19.6493 119.969 19.976 120.921 19.976C121.425 19.976 121.882 19.9013 122.293 19.752C122.703 19.584 123.198 19.3227 123.777 18.968L125.709 21.712C124.234 22.888 122.563 23.476 120.697 23.476C119.185 23.476 117.878 23.1587 116.777 22.524C115.675 21.8707 114.826 20.9653 114.229 19.808C113.631 18.632 113.333 17.26 113.333 15.692C113.333 14.124 113.631 12.7333 114.229 11.52C114.826 10.3067 115.675 9.364 116.777 8.692C117.878 8.00133 119.157 7.656 120.613 7.656ZM133.395 8.132V23H128.971V8.132H133.395ZM131.155 0.291999C131.92 0.291999 132.546 0.534666 133.031 1.02C133.535 1.48667 133.787 2.084 133.787 2.812C133.787 3.54 133.535 4.14667 133.031 4.632C132.546 5.09867 131.92 5.332 131.155 5.332C130.39 5.332 129.764 5.09867 129.279 4.632C128.794 4.14667 128.551 3.54 128.551 2.812C128.551 2.084 128.794 1.48667 129.279 1.02C129.764 0.534666 130.39 0.291999 131.155 0.291999ZM146.982 7.656C148.27 7.656 149.278 8.048 150.006 8.832C150.734 9.616 151.098 10.7173 151.098 12.136V23H146.674V12.892C146.674 12.1453 146.552 11.632 146.31 11.352C146.086 11.0533 145.74 10.904 145.274 10.904C144.378 10.904 143.519 11.548 142.698 12.836V23H138.274V8.132H142.138L142.446 9.896C143.08 9.14933 143.762 8.58933 144.49 8.216C145.236 7.84267 146.067 7.656 146.982 7.656ZM169.526 9C168.555 9.392 167.127 9.588 165.242 9.588C166.212 9.99867 166.922 10.5027 167.37 11.1C167.818 11.6973 168.042 12.472 168.042 13.424C168.042 14.376 167.79 15.2347 167.286 16C166.782 16.7467 166.054 17.3347 165.102 17.764C164.168 18.1933 163.067 18.408 161.798 18.408C161.2 18.408 160.631 18.352 160.09 18.24C159.94 18.3147 159.819 18.436 159.726 18.604C159.651 18.7533 159.614 18.912 159.614 19.08C159.614 19.36 159.716 19.584 159.922 19.752C160.146 19.9013 160.584 19.976 161.238 19.976H163.478C164.616 19.976 165.615 20.1627 166.474 20.536C167.332 20.9093 167.995 21.4227 168.462 22.076C168.928 22.7293 169.162 23.4667 169.162 24.288C169.162 25.8373 168.49 27.0413 167.146 27.9C165.82 28.7773 163.898 29.216 161.378 29.216C159.567 29.216 158.139 29.02 157.094 28.628C156.048 28.2547 155.311 27.7227 154.882 27.032C154.471 26.3413 154.266 25.4733 154.266 24.428H158.242C158.242 24.876 158.326 25.2307 158.494 25.492C158.68 25.7533 159.007 25.9493 159.474 26.08C159.94 26.2107 160.612 26.276 161.49 26.276C162.703 26.276 163.543 26.1267 164.01 25.828C164.476 25.548 164.71 25.1373 164.71 24.596C164.71 24.148 164.532 23.7933 164.178 23.532C163.823 23.2707 163.291 23.14 162.582 23.14H160.426C158.895 23.14 157.747 22.8693 156.982 22.328C156.235 21.768 155.862 21.0587 155.862 20.2C155.862 19.6587 156.02 19.136 156.338 18.632C156.655 18.1093 157.084 17.68 157.626 17.344C156.692 16.84 156.011 16.252 155.582 15.58C155.171 14.8893 154.966 14.0587 154.966 13.088C154.966 11.4267 155.563 10.1107 156.758 9.14C157.952 8.15067 159.53 7.656 161.49 7.656C162.983 7.69333 164.243 7.544 165.27 7.208C166.315 6.872 167.388 6.37733 168.49 5.724L169.526 9ZM161.602 10.568C160.911 10.568 160.36 10.792 159.95 11.24C159.558 11.6693 159.362 12.2667 159.362 13.032C159.362 13.8347 159.558 14.46 159.95 14.908C160.36 15.3373 160.911 15.552 161.602 15.552C162.33 15.552 162.88 15.3373 163.254 14.908C163.646 14.4787 163.842 13.8347 163.842 12.976C163.842 11.3707 163.095 10.568 161.602 10.568Z" fill="#141414"/>
</svg>
